<svg width="19" height="19" viewBox="0 0 19 19" fill="none" xmlns="http://www.w3.org/2000/svg">
<path fill-rule="evenodd" clip-rule="evenodd" d="M0.521258 0.521197C0.714618 0.328077 0.976726 0.219604 1.25001 0.219604C1.52329 0.219604 1.7854 0.328077 1.97876 0.521197L18.4788 17.0212C18.5801 17.1156 18.6613 17.2295 18.7177 17.356C18.7741 17.4825 18.8044 17.619 18.8068 17.7575C18.8093 17.8959 18.7838 18.0335 18.7319 18.1619C18.6801 18.2903 18.6029 18.4069 18.5049 18.5049C18.407 18.6028 18.2904 18.68 18.162 18.7319C18.0335 18.7837 17.896 18.8092 17.7575 18.8068C17.6191 18.8043 17.4825 18.774 17.356 18.7176C17.2295 18.6613 17.1157 18.58 17.0213 18.4787L0.521258 1.9787C0.328138 1.78534 0.219666 1.52323 0.219666 1.24995C0.219666 0.976665 0.328138 0.714557 0.521258 0.521197Z" fill="black"/>
<path fill-rule="evenodd" clip-rule="evenodd" d="M18.4788 0.521197C18.6719 0.714557 18.7804 0.976665 18.7804 1.24995C18.7804 1.52323 18.6719 1.78534 18.4788 1.9787L1.97878 18.4787C1.78329 18.6609 1.52473 18.76 1.25756 18.7553C0.9904 18.7506 0.735496 18.6424 0.546553 18.4534C0.35761 18.2645 0.249381 18.0096 0.244668 17.7424C0.239954 17.4753 0.339123 17.2167 0.521283 17.0212L17.0213 0.521197C17.2146 0.328077 17.4768 0.219604 17.75 0.219604C18.0233 0.219604 18.2854 0.328077 18.4788 0.521197Z" fill="black"/>
</svg>
