<svg width="19" height="19" viewBox="0 0 19 19" fill="none" xmlns="http://www.w3.org/2000/svg">
<path fill-rule="evenodd" clip-rule="evenodd" d="M0.521197 0.521197C0.714557 0.328077 0.976665 0.219604 1.24995 0.219604C1.52323 0.219604 1.78534 0.328077 1.9787 0.521197L18.4787 17.0212C18.58 17.1156 18.6613 17.2295 18.7176 17.356C18.774 17.4825 18.8043 17.619 18.8068 17.7575C18.8092 17.8959 18.7837 18.0335 18.7319 18.1619C18.68 18.2903 18.6028 18.4069 18.5049 18.5049C18.4069 18.6028 18.2903 18.68 18.1619 18.7319C18.0335 18.7837 17.8959 18.8092 17.7575 18.8068C17.619 18.8043 17.4825 18.774 17.356 18.7176C17.2295 18.6613 17.1156 18.58 17.0212 18.4787L0.521197 1.9787C0.328077 1.78534 0.219604 1.52323 0.219604 1.24995C0.219604 0.976665 0.328077 0.714557 0.521197 0.521197Z" fill="black"/>
<path fill-rule="evenodd" clip-rule="evenodd" d="M18.4787 0.521197C18.6718 0.714557 18.7803 0.976665 18.7803 1.24995C18.7803 1.52323 18.6718 1.78534 18.4787 1.9787L1.97866 18.4787C1.78317 18.6609 1.52461 18.76 1.25744 18.7553C0.990278 18.7506 0.735374 18.6424 0.546431 18.4534C0.357488 18.2645 0.249259 18.0096 0.244545 17.7424C0.239832 17.4753 0.339001 17.2167 0.521161 17.0212L17.0212 0.521197C17.2145 0.328077 17.4766 0.219604 17.7499 0.219604C18.0232 0.219604 18.2853 0.328077 18.4787 0.521197Z" fill="black"/>
</svg>
