<svg width="29" height="29" viewBox="0 0 29 29" fill="none" xmlns="http://www.w3.org/2000/svg">
<path d="M2.41671 6.3679L3.96337 4.83331L24.1667 25.0366L22.6321 26.5833L18.9105 22.8616C17.5209 23.3208 16.0467 23.5625 14.5 23.5625C8.45837 23.5625 3.29879 19.8046 1.20837 14.5C2.04212 12.3733 3.37129 10.5004 5.06296 9.01415L2.41671 6.3679ZM14.5 10.875C15.4614 10.875 16.3835 11.2569 17.0633 11.9367C17.7431 12.6165 18.125 13.5386 18.125 14.5C18.1257 14.9115 18.0562 15.3201 17.9196 15.7083L13.2917 11.0804C13.6799 10.9438 14.0885 10.8744 14.5 10.875ZM14.5 5.43748C20.5417 5.43748 25.7013 9.1954 27.7917 14.5C26.8049 17.0048 25.1292 19.179 22.9584 20.7712L21.2425 19.0433C22.9136 17.8875 24.2613 16.3235 25.1575 14.5C24.1808 12.5061 22.6642 10.8262 20.7802 9.65137C18.8962 8.47653 16.7203 7.85386 14.5 7.85415C13.183 7.85415 11.89 8.07165 10.6817 8.45831L8.82087 6.60956C10.5609 5.8604 12.4821 5.43748 14.5 5.43748ZM3.84254 14.5C4.81929 16.4939 6.33588 18.1738 8.21989 19.3486C10.1039 20.5234 12.2797 21.1461 14.5 21.1458C15.3338 21.1458 16.1555 21.0612 16.9167 20.8921L14.1617 18.125C13.3209 18.0349 12.5363 17.6596 11.9383 17.0617C11.3404 16.4637 10.9652 15.6791 10.875 14.8383L6.76671 10.7179C5.57046 11.745 4.56754 13.0258 3.84254 14.5Z" fill="#E8E3E3"/>
</svg>
