<svg width="26" height="27" viewBox="0 0 26 27" fill="none" xmlns="http://www.w3.org/2000/svg">
<g clip-path="url(#clip0_65_563)">
<path d="M25.9491 13.7526C25.9491 12.6464 25.8609 11.8392 25.67 11.0021H13.2582V15.9948H20.5437C20.3968 17.2356 19.6037 19.1041 17.841 20.3597L17.8163 20.5269L21.7407 23.6209L22.0126 23.6485C24.5096 21.3015 25.9491 17.8484 25.9491 13.7526Z" fill="#4285F4"/>
<path d="M13.2583 26.9072C16.8276 26.9072 19.824 25.7113 22.0127 23.6485L17.8411 20.3597C16.7248 21.152 15.2265 21.7051 13.2583 21.7051C9.76241 21.7051 6.79534 19.3583 5.73766 16.1144L5.58263 16.1278L1.50197 19.3418L1.44861 19.4927C3.6225 23.8876 8.08784 26.9072 13.2583 26.9072Z" fill="#34A853"/>
<path d="M5.73757 16.1145C5.45849 15.2774 5.29698 14.3804 5.29698 13.4536C5.29698 12.5268 5.45849 11.6299 5.72289 10.7928L5.7155 10.6145L1.58371 7.34894L1.44852 7.41438C0.552559 9.23811 0.0384521 11.2861 0.0384521 13.4536C0.0384521 15.6211 0.552559 17.669 1.44852 19.4928L5.73757 16.1145Z" fill="#FBBC05"/>
<path d="M13.2583 5.20203C15.7406 5.20203 17.4151 6.29327 18.3699 7.20519L22.1008 3.49794C19.8094 1.33042 16.8276 0 13.2583 0C8.08784 0 3.6225 3.01957 1.44861 7.41439L5.72297 10.7928C6.79534 7.54897 9.76241 5.20203 13.2583 5.20203Z" fill="#EB4335"/>
</g>
<defs>
<clipPath id="clip0_65_563">
<rect width="26" height="27" fill="white"/>
</clipPath>
</defs>
</svg>
