<svg width="18" height="23" viewBox="0 0 18 23" fill="none" xmlns="http://www.w3.org/2000/svg">
<path d="M9.16367 23C9.16367 23 17.8381 14.8264 17.8381 8.625C17.8381 6.33751 16.9242 4.14371 15.2974 2.5262C13.6706 0.908703 11.4643 0 9.16367 0C6.86307 0 4.6567 0.908703 3.02993 2.5262C1.40317 4.14371 0.489258 6.33751 0.489258 8.625C0.489258 14.8264 9.16367 23 9.16367 23ZM9.16367 12.9375C8.01337 12.9375 6.91019 12.4831 6.0968 11.6744C5.28342 10.8656 4.82646 9.76875 4.82646 8.625C4.82646 7.48125 5.28342 6.38435 6.0968 5.5756C6.91019 4.76685 8.01337 4.3125 9.16367 4.3125C10.314 4.3125 11.4172 4.76685 12.2305 5.5756C13.0439 6.38435 13.5009 7.48125 13.5009 8.625C13.5009 9.76875 13.0439 10.8656 12.2305 11.6744C11.4172 12.4831 10.314 12.9375 9.16367 12.9375Z" fill="white"/>
</svg>
